<svg height="512pt" viewBox="0 -11 512.00025 512" width="512pt" xmlns="http://www.w3.org/2000/svg"><path d="m501 245c0 68.863281-28.410156 131.089844-74.148438 175.597656-8.378906 8.15625-18.929687 14.503906-28.40625 21.402344-9.496093 6.914062-17.921874 14.371094-28.382812 19.886719-23.492188 12.378906-49.234375 21.050781-76.457031 25.246093-12.261719 1.886719-64.464844 1.765626-77.421875-.351562-116.375-19.019531-205.183594-120.027344-205.183594-241.78125 0-135.308594 109.691406-245 245-245s245 109.691406 245 245zm0 0" fill="#ffd188"/><path d="m496.125 136.1875h-338.117188l-16.164062-51.480469c-2.324219-7.554687-9.300781-12.707031-17.203125-12.707031h-90c-9.941406 0-18 8.058594-18 18s8.058594 18 18 18h76.707031l8.867188 28.1875h-.214844l19.230469 60.4375 9.019531 28.671875c.191406.625.425781 1.226563.679688 1.8125l38.109374 119.769531c4.191407 13.175782 16.425782 22.121094 30.25 22.121094h22.710938v70h30v-10h130s20.132812-1.878906 26.84375-8.410156c1.0625-1.03125 2.113281-2.074219 3.15625-3.125v-48.464844h31.652344c16.3125 0 29.96875-12.359375 31.589844-28.585938l18.679687-186.773437c.933594-9.34375-6.40625-17.453125-15.796875-17.453125zm-96.125 262.8125h-130v-30h130zm0 0" fill="#59b4d1"/><path d="m300 464c0 8.457031-2.339844 16.367188-6.398438 23.128906-12.257812 1.886719-24.816406 2.871094-37.601562 2.871094-13.558594 0-26.855469-1.117188-39.8125-3.238281-3.925781-6.679688-6.1875-14.453125-6.1875-22.761719 0-24.851562 20.148438-45 45-45s45 20.148438 45 45zm115-45c-24.136719 0-43.832031 19.007812-44.945312 42.867188 20.894531-11.011719 40.007812-24.953126 56.785156-41.28125-3.773438-1.027344-7.742188-1.585938-11.839844-1.585938zm0 0" fill="#024c67"/><path d="m270 464c0 8.285156-6.714844 15-15 15s-15-6.714844-15-15 6.714844-15 15-15 15 6.714844 15 15zm0 0" fill="#c5d3dd"/><path d="m90 120h-60c-16.570312 0-30-13.429688-30-30s13.429688-30 30-30h60c16.570312 0 30 13.429688 30 30 0 16.566406-13.433594 30-30 30zm0 0" fill="#024c67"/><path d="m90 120h-25.359375c-16.570313 0-30-13.429688-30-30s13.429687-30 30-30h25.359375c16.570312 0 30 13.429688 30 30 0 16.566406-13.433594 30-30 30zm0 0" fill="#017296"/><path d="m511.921875 153.640625-18.679687 186.773437c-1.621094 16.226563-15.277344 28.585938-31.589844 28.585938h-206.363282c-13.824218 0-26.058593-8.945312-30.25-22.121094-2.25-7.070312 3.027344-14.285156 10.445313-14.285156h209.515625c8.523438 0 15.390625-7.109375 14.984375-15.726562-.382813-8.066407-7.332031-14.273438-15.410156-14.273438h-225.613281c-4.773438 0-8.996094-3.089844-10.445313-7.636719l-4.160156-13.078125c-2.25-7.070312 3.027343-14.285156 10.445312-14.285156h240.199219c8.523438 0 15.390625-7.109375 14.984375-15.726562-.382813-8.066407-7.332031-14.273438-15.410156-14.273438h-256.292969c-4.773438 0-9-3.089844-10.445312-7.636719l-4.160157-13.078125c-2.25-7.070312 3.027344-14.285156 10.445313-14.285156h270.878906c8.523438 0 15.390625-7.109375 14.984375-15.726562-.382813-8.066407-7.332031-14.273438-15.410156-14.273438h-286.976563c-4.773437 0-8.996094-3.089844-10.445312-7.636719l-9.152344-28.769531h338.125c9.390625 0 16.730469 8.109375 15.796875 17.453125zm0 0" fill="#7dc3db"/><path d="m402.757812 128.933594-65.269531 103.453125c-7.042969 11.160156-23.3125 11.160156-30.351562 0l-65.273438-103.453125c-5.023437-7.964844.699219-18.34375 10.117188-18.34375h28.460937v-53.644532c0-9.910156 8.035156-17.945312 17.945313-17.945312h47.847656c9.910156 0 17.945313 8.035156 17.945313 17.945312v53.644532h28.460937c9.417969 0 15.140625 10.378906 10.117187 18.34375zm0 0" fill="#fc5e93"/><path d="m348.511719 214.910156-11.023438 17.476563c-7.042969 11.160156-23.3125 11.160156-30.351562 0l-65.273438-103.453125c-5.023437-7.964844.699219-18.34375 10.117188-18.34375h28.460937v-53.644532c0-9.910156 8.035156-17.945312 17.945313-17.945312h28.3125v65.605469c0 3.304687-2.679688 5.984375-5.980469 5.984375h-16.332031c-9.417969 0-15.144531 10.378906-10.117188 18.34375zm0 0" fill="#fd3980"/></svg>