<?xml version="1.0" encoding="iso-8859-1"?>
<!-- Generator: Adobe Illustrator 16.0.0, SVG Export Plug-In . SVG Version: 6.00 Build 0)  -->
<!DOCTYPE svg PUBLIC "-//W3C//DTD SVG 1.1//EN" "http://www.w3.org/Graphics/SVG/1.1/DTD/svg11.dtd">
<svg version="1.1" id="Capa_1" xmlns="http://www.w3.org/2000/svg" xmlns:xlink="http://www.w3.org/1999/xlink" x="0px" y="0px"
	 width="980.001px" height="980.001px" viewBox="0 0 980.001 980.001" style="enable-background:new 0 0 980.001 980.001;"
	 xml:space="preserve">
<g>
	<path d="M292.057,219.267c68.646,0,130.814-15.675,130.814-35.043c0-19.347-62.168-35.043-130.814-35.043
		c-68.671,0-130.835,15.696-130.835,35.043C161.222,203.591,223.386,219.267,292.057,219.267z"/>
	<path d="M103.765,580.753c53.793,18.131,122.467,28.115,193.369,28.115c4.307,0,9.695-0.165,14.4-0.325
		c14.042-0.481,25.467-12.245,25.467-26.224V451.448c0-21.677,21.089-44.546,59.382-64.396
		c40.778-21.139,99.835-37.969,166.292-47.393c13.24-1.877,23.607-13.818,23.603-27.188l-0.089-145.61l-0.504-1.892
		c-8.471-31.828-42.875-59.11-99.494-78.898c-52.908-18.491-121.483-28.675-193.095-28.675c-71.616,0-140.192,10.184-193.096,28.675
		c-56.605,19.785-91.009,47.066-99.493,78.893L0,166.869l0.231,334.699l0.688,2.188C13.203,542.886,63.627,567.226,103.765,580.753z
		 M82.955,185.185c0-15.874,30.087-31.892,55.853-40.785c40.997-14.15,95.8-21.943,154.316-21.943
		c58.514,0,113.312,7.793,154.304,21.943c18.737,6.468,33.835,14.126,43.664,22.148c5.557,4.535,12.179,11.449,12.179,18.637
		c0,7.194-6.623,14.112-12.181,18.649c-9.828,8.023-24.926,15.684-43.662,22.153c-40.987,14.152-95.787,21.945-154.304,21.945
		c-58.518,0-113.321-7.794-154.315-21.945c-18.74-6.47-33.841-14.13-43.67-22.154C89.58,199.295,82.955,192.377,82.955,185.185z"/>
	<path d="M888.037,403.252c-54.743-20.898-127.204-32.407-204.036-32.407c-76.823,0-149.282,11.509-204.028,32.408
		c-59.309,22.64-91.972,54.559-91.972,89.875v307.215c0,35.308,32.664,67.22,91.973,89.856
		c54.748,20.897,127.207,32.405,204.027,32.405c76.829,0,149.29-11.508,204.036-32.405c59.304-22.636,91.964-54.548,91.964-89.856
		V493.128C980.001,457.811,947.341,425.892,888.037,403.252z M887.008,498.868c0,7.196-6.623,14.114-12.179,18.65
		c-9.826,8.023-24.923,15.684-43.658,22.152c-40.984,14.149-95.786,21.942-154.31,21.942c-58.527,0-113.333-7.793-154.323-21.943
		c-18.737-6.47-33.836-14.13-43.664-22.152c-5.557-4.537-12.181-11.455-12.181-18.65c0-7.188,6.623-14.103,12.18-18.637
		c9.828-8.021,24.928-15.681,43.666-22.147c40.993-14.15,95.799-21.943,154.323-21.943c58.521,0,113.321,7.793,154.311,21.943
		c18.735,6.468,33.832,14.126,43.659,22.147C880.386,484.766,887.008,491.681,887.008,498.868z"/>
	<path d="M676.883,462.863c-68.671,0-130.856,15.696-130.856,35.043c0,19.368,62.186,35.043,130.856,35.043
		c68.646,0,131.901-15.675,131.901-35.043C808.784,478.56,745.528,462.863,676.883,462.863z"/>
</g>
<g>
</g>
<g>
</g>
<g>
</g>
<g>
</g>
<g>
</g>
<g>
</g>
<g>
</g>
<g>
</g>
<g>
</g>
<g>
</g>
<g>
</g>
<g>
</g>
<g>
</g>
<g>
</g>
<g>
</g>
</svg>
